<?xml version="1.0" encoding="utf-8"?>
<!-- Generated by IcoMoon.io -->
<!DOCTYPE svg PUBLIC "-//W3C//DTD SVG 1.1//EN" "http://www.w3.org/Graphics/SVG/1.1/DTD/svg11.dtd">
<svg version="1.1" xmlns="http://www.w3.org/2000/svg" xmlns:xlink="http://www.w3.org/1999/xlink" width="1024" height="1024" viewBox="0 0 1024 1024">
<g id="icomoon-ignore">
</g>
	<path d="M193.52 611.048c-53.916-95.204-93.522-139.794-153.51-272.452-30.468-66.212-65.51-233.83 63.132-302.354 115.352-58.91 223.356-56.078 259.682 86.268 34.216 159.036-0.848 208.326 47.194 402.884-72.85 56.376-123.214 48.684-216.498 85.652zM207.722 655.9l230.316-92.934c0 0 125.26 202.032-24.244 246.476-149.502 44.448-197.99-153.544-206.070-153.544zM731.22 860.168l238.006-70.956c0 0 105.788 212.874-47.222 243.124s-182.74-171.412-190.784-172.168zM943.020 755.718c-11.38-108.818-5.026-168.118-33.21-310.956-13.638-71.598-82.432-228.414-226.954-209.51-128.12 19.014-214.412 84.028-161.336 221.016 64.482 149.348 121.65 169.122 195.502 355.42 92.046 3.6 128.586-31.904 225.998-55.97z"></path>
</svg>
