<?xml version="1.0" encoding="UTF-8" standalone="no"?>
<!-- Created with Inkscape (http://www.inkscape.org/) -->

<svg
   xmlns:dc="http://purl.org/dc/elements/1.1/"
   xmlns:cc="http://creativecommons.org/ns#"
   xmlns:rdf="http://www.w3.org/1999/02/22-rdf-syntax-ns#"
   xmlns:svg="http://www.w3.org/2000/svg"
   xmlns="http://www.w3.org/2000/svg"
   xmlns:sodipodi="http://sodipodi.sourceforge.net/DTD/sodipodi-0.dtd"
   xmlns:inkscape="http://www.inkscape.org/namespaces/inkscape"
   width="385.28125"
   height="385.28125"
   id="svg2"
   version="1.1"
   inkscape:version="0.48.4 r9939"
   sodipodi:docname="New document 1">
  <defs
     id="defs4" />
  <sodipodi:namedview
     id="base"
     pagecolor="#ffffff"
     bordercolor="#666666"
     borderopacity="1.0"
     inkscape:pageopacity="0.0"
     inkscape:pageshadow="2"
     inkscape:zoom="0.98994949"
     inkscape:cx="364.0953"
     inkscape:cy="135.79947"
     inkscape:document-units="px"
     inkscape:current-layer="layer1"
     showgrid="false"
     inkscape:window-width="1920"
     inkscape:window-height="1052"
     inkscape:window-x="1366"
     inkscape:window-y="0"
     inkscape:window-maximized="1"
     fit-margin-top="0"
     fit-margin-left="0"
     fit-margin-right="0"
     fit-margin-bottom="0" />
  <metadata
     id="metadata7">
    <rdf:RDF>
      <cc:Work
         rdf:about="">
        <dc:format>image/svg+xml</dc:format>
        <dc:type
           rdf:resource="http://purl.org/dc/dcmitype/StillImage" />
        <dc:title></dc:title>
      </cc:Work>
    </rdf:RDF>
  </metadata>
  <g
     inkscape:label="Layer 1"
     inkscape:groupmode="layer"
     id="layer1"
     transform="translate(-191.65625,-244)">
    <path
       sodipodi:type="arc"
       style="fill:#000000;fill-rule:evenodd;stroke:none"
       id="path2996"
       sodipodi:cx="382.14285"
       sodipodi:cy="435.93362"
       sodipodi:rx="31.428572"
       sodipodi:ry="31.428572"
       d="m 413.57142,435.93362 c 0,17.35753 -14.07105,31.42858 -31.42857,31.42858 -17.35752,0 -31.42857,-14.07105 -31.42857,-31.42858 0,-17.35752 14.07105,-31.42857 31.42857,-31.42857 17.35752,0 31.42857,14.07105 31.42857,31.42857 z"
       transform="matrix(1.0200883,0,0,1.0200883,-5.6166685,-8.1258029)" />
    <path
       style="fill:#000000;stroke:#000000;stroke-width:1px;stroke-linecap:butt;stroke-linejoin:miter;stroke-opacity:0"
       d="m 375.84056,385.89926 c -0.0133,2.30054 10.04714,0.87208 17.71181,1.9026 10.13213,1.36228 18.88607,7.12497 25.69187,12.43542 3.6084,2.81558 11.35318,-18.04558 17.52622,-37.33872 2.7085,-8.4651 7.51837,-37.17364 2.93553,-40.54721 -7.97838,-5.87314 -29.34297,-14.24675 -57.93232,-13.37217 -1.71089,0.0523 -3.159,-0.11207 -4.37379,1.95946 -1.72639,2.94394 -0.47038,6.68095 0.42304,15.6433 0.54152,5.43229 0.61192,15.33655 0.41148,26.13724 -0.20886,11.25435 -2.22061,29.54205 -2.26758,30.52843 z"
       id="path2998"
       inkscape:connector-curvature="0"
       sodipodi:nodetypes="csssssssssc" />
    <path
       style="fill:#000000;stroke:#000000;stroke-width:1px;stroke-linecap:butt;stroke-linejoin:miter;stroke-opacity:0"
       d="m 423.99191,402.32886 c -1.99897,1.13875 4.26833,9.13712 7.20821,16.29018 3.88629,9.45582 3.27263,19.9183 2.07654,28.46752 -0.63416,4.53275 21.30452,0.80935 41.09939,-3.49121 8.68524,-1.88692 35.9525,-12.07572 36.58268,-17.73136 1.0971,-9.84605 -2.33344,-32.53513 -17.38552,-56.85695 -0.90074,-1.45552 -1.48244,-2.79181 -3.88384,-2.80808 -3.41272,-0.0231 -6.02106,2.93311 -13.33597,8.18801 -4.43374,3.18512 -12.97588,8.19822 -22.42978,13.42497 -9.85098,5.4463 -26.69447,12.84792 -27.57218,13.30044 z"
       id="path2998-4"
       inkscape:connector-curvature="0"
       sodipodi:nodetypes="csssssssssc" />
    <path
       style="fill:#000000;stroke:#000000;stroke-width:1px;stroke-linecap:butt;stroke-linejoin:miter;stroke-opacity:0"
       d="m 433.21417,453.75468 c -1.98567,-1.16179 -5.77881,8.26504 -10.5036,14.38758 -6.24584,8.09353 -15.61344,12.79333 -23.61533,16.03209 -4.24255,1.71718 9.95135,18.85494 23.57317,33.84752 5.97674,6.57817 28.43413,25.09791 33.64715,22.81585 9.07548,-3.97291 27.00953,-18.28839 40.54681,-43.48478 0.81014,-1.50783 1.67655,-2.67974 0.48994,-4.76755 -1.68635,-2.96705 -5.55067,-3.74783 -13.75901,-7.45528 -4.97526,-2.24717 -13.5878,-7.13833 -22.84125,-12.71227 -9.64212,-5.80805 -24.47386,-16.69413 -25.30461,-17.22799 z"
       id="path2998-4-2"
       inkscape:connector-curvature="0"
       sodipodi:nodetypes="csssssssssc" />
    <path
       style="fill:#000000;stroke:#000000;stroke-width:1px;stroke-linecap:butt;stroke-linejoin:miter;stroke-opacity:0"
       d="m 396.21792,487.57017 c 0.0133,-2.30053 -10.04714,-0.87207 -17.71181,-1.90259 -10.13212,-1.36229 -18.88607,-7.12497 -25.69186,-12.43543 -3.60839,-2.81557 -11.35318,18.04559 -17.52623,37.33872 -2.70849,8.4651 -7.51836,37.17364 -2.93553,40.54721 7.97838,5.87315 29.34298,14.24675 57.93233,13.37218 1.71089,-0.0523 3.159,0.11207 4.37379,-1.95947 1.72637,-2.94395 0.47038,-6.68094 -0.42304,-15.64329 -0.54152,-5.43229 -0.61193,-15.33655 -0.41148,-26.13724 0.20886,-11.25435 2.22061,-29.54205 2.26757,-30.52843 z"
       id="path2998-4-2-8"
       inkscape:connector-curvature="0"
       sodipodi:nodetypes="csssssssssc" />
    <path
       style="fill:#000000;stroke:#000000;stroke-width:1px;stroke-linecap:butt;stroke-linejoin:miter;stroke-opacity:0"
       d="m 345.99687,471.01955 c 1.99897,-1.13874 -4.26833,-9.13711 -7.20821,-16.29017 -3.88628,-9.45582 -3.27263,-19.9183 -2.07653,-28.46752 0.63416,-4.53274 -21.30453,-0.80935 -41.0994,3.4912 -8.68523,1.88693 -35.95249,12.07573 -36.58268,17.73136 -1.0971,9.84606 2.33345,32.53514 17.38552,56.85696 0.90074,1.45553 1.48245,2.79181 3.88385,2.80808 3.41272,0.0231 6.02105,-2.93311 13.33596,-8.18801 4.43375,-3.18511 12.97588,-8.19822 22.42978,-13.42497 9.85098,-5.4463 26.69447,-12.84792 27.57218,-13.30044 z"
       id="path2998-4-2-8-2"
       inkscape:connector-curvature="0"
       sodipodi:nodetypes="csssssssssc" />
    <path
       style="fill:#000000;stroke:#000000;stroke-width:1px;stroke-linecap:butt;stroke-linejoin:miter;stroke-opacity:0"
       d="m 335.51193,419.59372 c 1.98566,1.16179 5.7788,-8.26504 10.50359,-14.38758 6.24584,-8.09352 15.61344,-12.79333 23.61533,-16.03208 4.24255,-1.71718 -9.95134,-18.85494 -23.57316,-33.84753 -5.97675,-6.57816 -28.43414,-25.0979 -33.64715,-22.81585 -9.07549,3.97291 -27.00953,18.2884 -40.54681,43.48478 -0.81016,1.50783 -1.67656,2.67975 -0.48995,4.76756 1.68636,2.96705 5.55068,3.74782 13.75901,7.45527 4.97526,2.24719 13.5878,7.13833 22.84125,12.71227 9.64213,5.80805 24.47386,16.69413 25.30461,17.22799 z"
       id="path2998-4-2-8-2-6"
       inkscape:connector-curvature="0"
       sodipodi:nodetypes="csssssssssc" />
    <path
       style="fill:#000000;stroke:#000000;stroke-opacity:0"
       d="m 231.4375,244.5 c -21.7722,0 -39.28125,17.5403 -39.28125,39.3125 l 0,305.6875 c 0,21.7722 17.50905,39.28125 39.28125,39.28125 l 305.6875,0 c 21.7722,0 39.3125,-17.50905 39.3125,-39.28125 l 0,-305.6875 c 0,-21.7722 -17.5403,-39.3125 -39.3125,-39.3125 l -305.6875,0 z m 8.75,29.46875 c 10.25672,0 18.5625,8.30578 18.5625,18.5625 0,10.25672 -8.30578,18.59375 -18.5625,18.59375 -10.25672,0 -18.59375,-8.33703 -18.59375,-18.59375 0,-10.25672 8.33703,-18.5625 18.59375,-18.5625 z m 288.03125,0.1875 c 10.25672,0 18.5625,8.30578 18.5625,18.5625 0,10.25672 -8.30578,18.5625 -18.5625,18.5625 -10.25672,0 -18.5625,-8.30578 -18.5625,-18.5625 0,-10.25672 8.30578,-18.5625 18.5625,-18.5625 z M 383.5625,289.5 C 464.43277,289.5 530,355.06723 530,435.9375 c 0,80.87027 -65.56723,146.4375 -146.4375,146.4375 -80.87027,0 -146.40625,-65.56723 -146.40625,-146.4375 0,-80.87027 65.53598,-146.4375 146.40625,-146.4375 z M 240.34375,562.375 c 10.25672,0 18.59375,8.30578 18.59375,18.5625 0,10.25672 -8.33703,18.5625 -18.59375,18.5625 -10.25672,0 -18.5625,-8.30578 -18.5625,-18.5625 0,-10.25672 8.30578,-18.5625 18.5625,-18.5625 z m 287.5,0 c 10.25672,0 18.59375,8.30578 18.59375,18.5625 0,10.25672 -8.33703,18.5625 -18.59375,18.5625 -10.25672,0 -18.5625,-8.30578 -18.5625,-18.5625 0,-10.25672 8.30578,-18.5625 18.5625,-18.5625 z"
       id="rect3858"
       inkscape:connector-curvature="0" />
  </g>
</svg>
